<mxfile host="app.diagrams.net" modified="2023-01-07T16:12:16.823Z" agent="5.0 (Macintosh; Intel Mac OS X 10_15_7) AppleWebKit/605.1.15 (KHTML, like Gecko) Version/16.1 Safari/605.1.15" version="20.6.2" etag="q6PFbR74N4QDs9wdMRKC" type="github">
  <diagram id="VyU8XYKOleGl__aWGSRd" name="第 1 页">
    <mxGraphModel dx="1186" dy="733" grid="1" gridSize="10" guides="1" tooltips="1" connect="1" arrows="1" fold="1" page="1" pageScale="1" pageWidth="827" pageHeight="1169" math="0" shadow="0">
      <root>
        <mxCell id="0" />
        <mxCell id="1" parent="0" />
        <mxCell id="Ho8h_6Hgs806xJqop72o-6" value="" style="edgeStyle=orthogonalEdgeStyle;rounded=0;orthogonalLoop=1;jettySize=auto;html=1;labelBackgroundColor=none;fontSize=13;fontColor=#000000;startArrow=none;startFill=0;endArrow=classic;endFill=1;exitX=0.5;exitY=1;exitDx=0;exitDy=0;" edge="1" parent="1" source="Ho8h_6Hgs806xJqop72o-34" target="Ho8h_6Hgs806xJqop72o-5">
          <mxGeometry relative="1" as="geometry">
            <mxPoint x="250" y="290" as="sourcePoint" />
          </mxGeometry>
        </mxCell>
        <mxCell id="Ho8h_6Hgs806xJqop72o-7" value="是" style="edgeLabel;html=1;align=center;verticalAlign=middle;resizable=0;points=[];fontSize=13;fontColor=#000000;" vertex="1" connectable="0" parent="Ho8h_6Hgs806xJqop72o-6">
          <mxGeometry x="-0.2222" y="-2" relative="1" as="geometry">
            <mxPoint as="offset" />
          </mxGeometry>
        </mxCell>
        <mxCell id="Ho8h_6Hgs806xJqop72o-8" style="edgeStyle=orthogonalEdgeStyle;rounded=0;orthogonalLoop=1;jettySize=auto;html=1;exitX=1;exitY=0.5;exitDx=0;exitDy=0;labelBackgroundColor=none;fontSize=13;fontColor=#000000;startArrow=none;startFill=0;endArrow=classic;endFill=1;" edge="1" parent="1" source="Ho8h_6Hgs806xJqop72o-34" target="Ho8h_6Hgs806xJqop72o-3">
          <mxGeometry relative="1" as="geometry">
            <mxPoint x="340" y="250" as="sourcePoint" />
          </mxGeometry>
        </mxCell>
        <mxCell id="Ho8h_6Hgs806xJqop72o-9" value="否" style="edgeLabel;html=1;align=center;verticalAlign=middle;resizable=0;points=[];fontSize=13;fontColor=#000000;" vertex="1" connectable="0" parent="Ho8h_6Hgs806xJqop72o-8">
          <mxGeometry x="-0.0429" y="-2" relative="1" as="geometry">
            <mxPoint as="offset" />
          </mxGeometry>
        </mxCell>
        <mxCell id="Ho8h_6Hgs806xJqop72o-2" value="" style="endArrow=classic;html=1;rounded=0;labelBackgroundColor=none;fontSize=13;fontColor=#000000;entryX=0.5;entryY=0;entryDx=0;entryDy=0;edgeStyle=orthogonalEdgeStyle;" edge="1" parent="1" target="Ho8h_6Hgs806xJqop72o-34">
          <mxGeometry x="-0.3" y="10" width="50" height="50" relative="1" as="geometry">
            <mxPoint x="120" y="140" as="sourcePoint" />
            <mxPoint x="250" y="210" as="targetPoint" />
            <mxPoint as="offset" />
          </mxGeometry>
        </mxCell>
        <mxCell id="Ho8h_6Hgs806xJqop72o-10" value="enter" style="edgeLabel;html=1;align=center;verticalAlign=middle;resizable=0;points=[];fontSize=13;fontColor=#000000;" vertex="1" connectable="0" parent="Ho8h_6Hgs806xJqop72o-2">
          <mxGeometry x="-0.41" y="-3" relative="1" as="geometry">
            <mxPoint x="7" y="-4" as="offset" />
          </mxGeometry>
        </mxCell>
        <mxCell id="Ho8h_6Hgs806xJqop72o-3" value="返回当前 owner 指向到线程" style="whiteSpace=wrap;html=1;fontSize=13;fillColor=#d5e8d4;labelBackgroundColor=none;strokeColor=#82b366;" vertex="1" parent="1">
          <mxGeometry x="480" y="220" width="200" height="60" as="geometry" />
        </mxCell>
        <mxCell id="Ho8h_6Hgs806xJqop72o-12" value="" style="edgeStyle=orthogonalEdgeStyle;rounded=0;orthogonalLoop=1;jettySize=auto;html=1;labelBackgroundColor=none;fontSize=13;fontColor=#000000;startArrow=none;startFill=0;endArrow=classic;endFill=1;" edge="1" parent="1" source="Ho8h_6Hgs806xJqop72o-5" target="Ho8h_6Hgs806xJqop72o-11">
          <mxGeometry relative="1" as="geometry" />
        </mxCell>
        <mxCell id="Ho8h_6Hgs806xJqop72o-5" value="cas 操作设置 owner = 当前线程" style="whiteSpace=wrap;html=1;fontSize=13;fillColor=#d5e8d4;labelBackgroundColor=none;strokeColor=#82b366;" vertex="1" parent="1">
          <mxGeometry x="140" y="380" width="220" height="60" as="geometry" />
        </mxCell>
        <mxCell id="Ho8h_6Hgs806xJqop72o-16" value="" style="edgeStyle=orthogonalEdgeStyle;rounded=0;orthogonalLoop=1;jettySize=auto;html=1;labelBackgroundColor=none;fontSize=13;fontColor=#000000;startArrow=none;startFill=0;endArrow=classic;endFill=1;" edge="1" parent="1" source="Ho8h_6Hgs806xJqop72o-11" target="Ho8h_6Hgs806xJqop72o-15">
          <mxGeometry relative="1" as="geometry" />
        </mxCell>
        <mxCell id="Ho8h_6Hgs806xJqop72o-17" value="是&lt;br&gt;修改成功" style="edgeLabel;html=1;align=center;verticalAlign=middle;resizable=0;points=[];fontSize=13;fontColor=#000000;" vertex="1" connectable="0" parent="Ho8h_6Hgs806xJqop72o-16">
          <mxGeometry x="-0.0444" y="-1" relative="1" as="geometry">
            <mxPoint as="offset" />
          </mxGeometry>
        </mxCell>
        <mxCell id="Ho8h_6Hgs806xJqop72o-20" style="edgeStyle=orthogonalEdgeStyle;rounded=0;orthogonalLoop=1;jettySize=auto;html=1;exitX=1;exitY=0.5;exitDx=0;exitDy=0;labelBackgroundColor=none;fontSize=13;fontColor=#000000;startArrow=none;startFill=0;endArrow=classic;endFill=1;" edge="1" parent="1" source="Ho8h_6Hgs806xJqop72o-11" target="Ho8h_6Hgs806xJqop72o-18">
          <mxGeometry relative="1" as="geometry" />
        </mxCell>
        <mxCell id="Ho8h_6Hgs806xJqop72o-21" value="否" style="edgeLabel;html=1;align=center;verticalAlign=middle;resizable=0;points=[];fontSize=13;fontColor=#000000;" vertex="1" connectable="0" parent="Ho8h_6Hgs806xJqop72o-20">
          <mxGeometry x="-0.075" y="-2" relative="1" as="geometry">
            <mxPoint as="offset" />
          </mxGeometry>
        </mxCell>
        <mxCell id="Ho8h_6Hgs806xJqop72o-11" value="ret == null" style="rhombus;whiteSpace=wrap;html=1;fontSize=13;fillColor=#fff2cc;labelBackgroundColor=none;strokeColor=#d6b656;" vertex="1" parent="1">
          <mxGeometry x="175" y="510" width="150" height="80" as="geometry" />
        </mxCell>
        <mxCell id="Ho8h_6Hgs806xJqop72o-15" value="return" style="ellipse;whiteSpace=wrap;html=1;fontSize=13;fillColor=#f8cecc;labelBackgroundColor=none;strokeColor=#b85450;" vertex="1" parent="1">
          <mxGeometry x="190" y="900" width="120" height="60" as="geometry" />
        </mxCell>
        <mxCell id="Ho8h_6Hgs806xJqop72o-25" style="edgeStyle=orthogonalEdgeStyle;rounded=0;orthogonalLoop=1;jettySize=auto;html=1;exitX=0.5;exitY=1;exitDx=0;exitDy=0;entryX=0.5;entryY=0;entryDx=0;entryDy=0;labelBackgroundColor=none;fontSize=13;fontColor=#000000;startArrow=none;startFill=0;endArrow=classic;endFill=1;" edge="1" parent="1" source="Ho8h_6Hgs806xJqop72o-18" target="Ho8h_6Hgs806xJqop72o-24">
          <mxGeometry relative="1" as="geometry" />
        </mxCell>
        <mxCell id="Ho8h_6Hgs806xJqop72o-28" value="是&lt;br&gt;表示是重入" style="edgeLabel;html=1;align=center;verticalAlign=middle;resizable=0;points=[];fontSize=13;fontColor=#000000;" vertex="1" connectable="0" parent="Ho8h_6Hgs806xJqop72o-25">
          <mxGeometry x="-0.1111" relative="1" as="geometry">
            <mxPoint as="offset" />
          </mxGeometry>
        </mxCell>
        <mxCell id="Ho8h_6Hgs806xJqop72o-30" value="" style="edgeStyle=orthogonalEdgeStyle;rounded=0;orthogonalLoop=1;jettySize=auto;html=1;labelBackgroundColor=none;fontSize=13;fontColor=#000000;startArrow=none;startFill=0;endArrow=classic;endFill=1;" edge="1" parent="1" source="Ho8h_6Hgs806xJqop72o-18" target="Ho8h_6Hgs806xJqop72o-29">
          <mxGeometry relative="1" as="geometry" />
        </mxCell>
        <mxCell id="Ho8h_6Hgs806xJqop72o-31" value="否" style="edgeLabel;html=1;align=center;verticalAlign=middle;resizable=0;points=[];fontSize=13;fontColor=#000000;" vertex="1" connectable="0" parent="Ho8h_6Hgs806xJqop72o-30">
          <mxGeometry x="-0.1" y="-2" relative="1" as="geometry">
            <mxPoint as="offset" />
          </mxGeometry>
        </mxCell>
        <mxCell id="Ho8h_6Hgs806xJqop72o-18" value="是否是当前线程" style="rhombus;whiteSpace=wrap;html=1;fontSize=13;fillColor=#fff2cc;labelBackgroundColor=none;strokeColor=#d6b656;" vertex="1" parent="1">
          <mxGeometry x="405" y="510" width="150" height="80" as="geometry" />
        </mxCell>
        <mxCell id="Ho8h_6Hgs806xJqop72o-89" style="edgeStyle=orthogonalEdgeStyle;rounded=0;orthogonalLoop=1;jettySize=auto;html=1;exitX=0.5;exitY=1;exitDx=0;exitDy=0;entryX=0.5;entryY=0;entryDx=0;entryDy=0;labelBackgroundColor=none;fontSize=13;fontColor=#000000;startArrow=none;startFill=0;endArrow=classic;endFill=1;" edge="1" parent="1" source="Ho8h_6Hgs806xJqop72o-24" target="Ho8h_6Hgs806xJqop72o-88">
          <mxGeometry relative="1" as="geometry" />
        </mxCell>
        <mxCell id="Ho8h_6Hgs806xJqop72o-24" value="当前线程 _recursions++" style="whiteSpace=wrap;html=1;fontSize=13;fillColor=#d5e8d4;labelBackgroundColor=none;strokeColor=#82b366;" vertex="1" parent="1">
          <mxGeometry x="420" y="680" width="120" height="60" as="geometry" />
        </mxCell>
        <mxCell id="Ho8h_6Hgs806xJqop72o-33" value="" style="edgeStyle=orthogonalEdgeStyle;rounded=0;orthogonalLoop=1;jettySize=auto;html=1;labelBackgroundColor=none;fontSize=13;fontColor=#000000;startArrow=none;startFill=0;endArrow=classic;endFill=1;" edge="1" parent="1" source="Ho8h_6Hgs806xJqop72o-29" target="Ho8h_6Hgs806xJqop72o-32">
          <mxGeometry relative="1" as="geometry" />
        </mxCell>
        <mxCell id="Ho8h_6Hgs806xJqop72o-36" style="edgeStyle=orthogonalEdgeStyle;rounded=0;orthogonalLoop=1;jettySize=auto;html=1;exitX=1;exitY=0.5;exitDx=0;exitDy=0;labelBackgroundColor=none;fontSize=13;fontColor=#000000;startArrow=none;startFill=0;endArrow=classic;endFill=1;entryX=1;entryY=0.5;entryDx=0;entryDy=0;" edge="1" parent="1" source="Ho8h_6Hgs806xJqop72o-29" target="Ho8h_6Hgs806xJqop72o-49">
          <mxGeometry relative="1" as="geometry">
            <mxPoint x="680" y="1060" as="targetPoint" />
            <Array as="points">
              <mxPoint x="870" y="550" />
              <mxPoint x="870" y="1060" />
              <mxPoint x="720" y="1060" />
            </Array>
          </mxGeometry>
        </mxCell>
        <mxCell id="Ho8h_6Hgs806xJqop72o-39" value="否" style="edgeLabel;html=1;align=center;verticalAlign=middle;resizable=0;points=[];fontSize=13;fontColor=#000000;" vertex="1" connectable="0" parent="Ho8h_6Hgs806xJqop72o-36">
          <mxGeometry x="-0.131" relative="1" as="geometry">
            <mxPoint as="offset" />
          </mxGeometry>
        </mxCell>
        <mxCell id="Ho8h_6Hgs806xJqop72o-29" value="是否经过轻量级锁&lt;br&gt;升级而来" style="rhombus;whiteSpace=wrap;html=1;fontSize=13;fillColor=#fff2cc;labelBackgroundColor=none;strokeColor=#d6b656;" vertex="1" parent="1">
          <mxGeometry x="635" y="510" width="150" height="80" as="geometry" />
        </mxCell>
        <mxCell id="Ho8h_6Hgs806xJqop72o-91" value="" style="edgeStyle=orthogonalEdgeStyle;rounded=0;orthogonalLoop=1;jettySize=auto;html=1;labelBackgroundColor=none;fontSize=13;fontColor=#000000;startArrow=none;startFill=0;endArrow=classic;endFill=1;" edge="1" parent="1" source="Ho8h_6Hgs806xJqop72o-32" target="Ho8h_6Hgs806xJqop72o-90">
          <mxGeometry relative="1" as="geometry" />
        </mxCell>
        <mxCell id="Ho8h_6Hgs806xJqop72o-32" value="_recursion = 1&lt;br&gt;_owner = Self" style="whiteSpace=wrap;html=1;fontSize=13;fillColor=#d5e8d4;labelBackgroundColor=none;strokeColor=#82b366;" vertex="1" parent="1">
          <mxGeometry x="650" y="680" width="120" height="60" as="geometry" />
        </mxCell>
        <mxCell id="Ho8h_6Hgs806xJqop72o-34" value="owner == null" style="rhombus;whiteSpace=wrap;html=1;fontSize=13;fillColor=#fff2cc;labelBackgroundColor=none;strokeColor=#d6b656;" vertex="1" parent="1">
          <mxGeometry x="175" y="210" width="150" height="80" as="geometry" />
        </mxCell>
        <mxCell id="Ho8h_6Hgs806xJqop72o-44" value="" style="edgeStyle=orthogonalEdgeStyle;rounded=0;orthogonalLoop=1;jettySize=auto;html=1;labelBackgroundColor=none;fontSize=13;fontColor=#000000;startArrow=none;startFill=0;endArrow=classic;endFill=1;exitX=0;exitY=0.5;exitDx=0;exitDy=0;entryX=1;entryY=0.5;entryDx=0;entryDy=0;" edge="1" parent="1" source="Ho8h_6Hgs806xJqop72o-49" target="Ho8h_6Hgs806xJqop72o-51">
          <mxGeometry relative="1" as="geometry">
            <mxPoint x="530" y="1060" as="sourcePoint" />
            <mxPoint x="358.75" y="1060" as="targetPoint" />
          </mxGeometry>
        </mxCell>
        <mxCell id="Ho8h_6Hgs806xJqop72o-46" style="edgeStyle=orthogonalEdgeStyle;rounded=0;orthogonalLoop=1;jettySize=auto;html=1;exitX=0.5;exitY=0;exitDx=0;exitDy=0;entryX=0.5;entryY=1;entryDx=0;entryDy=0;labelBackgroundColor=none;fontSize=13;fontColor=#000000;startArrow=none;startFill=0;endArrow=classic;endFill=1;" edge="1" parent="1" source="Ho8h_6Hgs806xJqop72o-51" target="Ho8h_6Hgs806xJqop72o-15">
          <mxGeometry relative="1" as="geometry">
            <mxPoint x="250" y="1030" as="sourcePoint" />
          </mxGeometry>
        </mxCell>
        <mxCell id="Ho8h_6Hgs806xJqop72o-53" value="是" style="edgeLabel;html=1;align=center;verticalAlign=middle;resizable=0;points=[];fontSize=13;fontColor=#000000;" vertex="1" connectable="0" parent="Ho8h_6Hgs806xJqop72o-46">
          <mxGeometry x="-0.1333" y="-4" relative="1" as="geometry">
            <mxPoint x="-5" as="offset" />
          </mxGeometry>
        </mxCell>
        <mxCell id="Ho8h_6Hgs806xJqop72o-49" value="TrySpin(Self) &amp;gt; 0&lt;br&gt;自旋操作，默认循环 10 次" style="rounded=0;whiteSpace=wrap;html=1;labelBackgroundColor=none;fontSize=13;fillColor=#d5e8d4;strokeColor=#82b366;" vertex="1" parent="1">
          <mxGeometry x="490" y="1030" width="180" height="60" as="geometry" />
        </mxCell>
        <mxCell id="Ho8h_6Hgs806xJqop72o-55" style="edgeStyle=orthogonalEdgeStyle;rounded=0;orthogonalLoop=1;jettySize=auto;html=1;exitX=0.5;exitY=1;exitDx=0;exitDy=0;labelBackgroundColor=none;fontSize=13;fontColor=#000000;startArrow=none;startFill=0;endArrow=classic;endFill=1;" edge="1" parent="1" source="Ho8h_6Hgs806xJqop72o-51" target="Ho8h_6Hgs806xJqop72o-54">
          <mxGeometry relative="1" as="geometry" />
        </mxCell>
        <mxCell id="Ho8h_6Hgs806xJqop72o-63" value="否" style="edgeLabel;html=1;align=center;verticalAlign=middle;resizable=0;points=[];fontSize=13;fontColor=#000000;" vertex="1" connectable="0" parent="Ho8h_6Hgs806xJqop72o-55">
          <mxGeometry x="-0.2" y="-2" relative="1" as="geometry">
            <mxPoint as="offset" />
          </mxGeometry>
        </mxCell>
        <mxCell id="Ho8h_6Hgs806xJqop72o-51" value="TryLock&lt;br&gt;cas 操作设置 owner = 当前线程" style="rhombus;whiteSpace=wrap;html=1;fontSize=13;fillColor=#fff2cc;labelBackgroundColor=none;strokeColor=#d6b656;" vertex="1" parent="1">
          <mxGeometry x="157.5" y="1020" width="185" height="80" as="geometry" />
        </mxCell>
        <mxCell id="Ho8h_6Hgs806xJqop72o-58" style="edgeStyle=orthogonalEdgeStyle;rounded=0;orthogonalLoop=1;jettySize=auto;html=1;exitX=0.5;exitY=1;exitDx=0;exitDy=0;entryX=0.5;entryY=0;entryDx=0;entryDy=0;labelBackgroundColor=none;fontSize=13;fontColor=#000000;startArrow=none;startFill=0;endArrow=classic;endFill=1;" edge="1" parent="1" source="Ho8h_6Hgs806xJqop72o-54" target="Ho8h_6Hgs806xJqop72o-56">
          <mxGeometry relative="1" as="geometry" />
        </mxCell>
        <mxCell id="Ho8h_6Hgs806xJqop72o-54" value="进入 EnterI" style="whiteSpace=wrap;html=1;fontSize=13;labelBackgroundColor=none;fillColor=#d5e8d4;strokeColor=#82b366;" vertex="1" parent="1">
          <mxGeometry x="190" y="1180" width="120" height="60" as="geometry" />
        </mxCell>
        <mxCell id="Ho8h_6Hgs806xJqop72o-65" style="edgeStyle=orthogonalEdgeStyle;rounded=0;orthogonalLoop=1;jettySize=auto;html=1;exitX=0.5;exitY=1;exitDx=0;exitDy=0;labelBackgroundColor=none;fontSize=13;fontColor=#000000;startArrow=none;startFill=0;endArrow=classic;endFill=1;" edge="1" parent="1" source="Ho8h_6Hgs806xJqop72o-56" target="Ho8h_6Hgs806xJqop72o-64">
          <mxGeometry relative="1" as="geometry" />
        </mxCell>
        <mxCell id="Ho8h_6Hgs806xJqop72o-66" value="否" style="edgeLabel;html=1;align=center;verticalAlign=middle;resizable=0;points=[];fontSize=13;fontColor=#000000;" vertex="1" connectable="0" parent="Ho8h_6Hgs806xJqop72o-65">
          <mxGeometry x="-0.075" y="1" relative="1" as="geometry">
            <mxPoint as="offset" />
          </mxGeometry>
        </mxCell>
        <mxCell id="Ho8h_6Hgs806xJqop72o-84" value="" style="edgeStyle=orthogonalEdgeStyle;rounded=0;orthogonalLoop=1;jettySize=auto;html=1;labelBackgroundColor=none;fontSize=13;fontColor=#000000;startArrow=none;startFill=0;endArrow=classic;endFill=1;" edge="1" parent="1" source="Ho8h_6Hgs806xJqop72o-56" target="Ho8h_6Hgs806xJqop72o-83">
          <mxGeometry relative="1" as="geometry" />
        </mxCell>
        <mxCell id="Ho8h_6Hgs806xJqop72o-85" value="是" style="edgeLabel;html=1;align=center;verticalAlign=middle;resizable=0;points=[];fontSize=13;fontColor=#000000;" vertex="1" connectable="0" parent="Ho8h_6Hgs806xJqop72o-84">
          <mxGeometry x="-0.2622" y="-4" relative="1" as="geometry">
            <mxPoint as="offset" />
          </mxGeometry>
        </mxCell>
        <mxCell id="Ho8h_6Hgs806xJqop72o-56" value="TryLock&lt;br&gt;cas 操作设置 owner = 当前线程" style="rhombus;whiteSpace=wrap;html=1;fontSize=13;fillColor=#fff2cc;labelBackgroundColor=none;strokeColor=#d6b656;" vertex="1" parent="1">
          <mxGeometry x="157.5" y="1300" width="185" height="80" as="geometry" />
        </mxCell>
        <mxCell id="Ho8h_6Hgs806xJqop72o-68" style="edgeStyle=orthogonalEdgeStyle;rounded=0;orthogonalLoop=1;jettySize=auto;html=1;exitX=0.5;exitY=1;exitDx=0;exitDy=0;entryX=0.5;entryY=0;entryDx=0;entryDy=0;labelBackgroundColor=none;fontSize=13;fontColor=#000000;startArrow=none;startFill=0;endArrow=classic;endFill=1;" edge="1" parent="1" source="Ho8h_6Hgs806xJqop72o-64" target="Ho8h_6Hgs806xJqop72o-67">
          <mxGeometry relative="1" as="geometry" />
        </mxCell>
        <mxCell id="Ho8h_6Hgs806xJqop72o-64" value="TrySpin(Self) &amp;gt; 0&lt;br&gt;自旋操作，默认循环 10 次" style="rounded=0;whiteSpace=wrap;html=1;labelBackgroundColor=none;fontSize=13;fillColor=#d5e8d4;strokeColor=#82b366;" vertex="1" parent="1">
          <mxGeometry x="160" y="1460" width="180" height="60" as="geometry" />
        </mxCell>
        <mxCell id="Ho8h_6Hgs806xJqop72o-73" value="" style="edgeStyle=orthogonalEdgeStyle;rounded=0;orthogonalLoop=1;jettySize=auto;html=1;labelBackgroundColor=none;fontSize=13;fontColor=#000000;startArrow=none;startFill=0;endArrow=classic;endFill=1;" edge="1" parent="1" source="Ho8h_6Hgs806xJqop72o-67" target="Ho8h_6Hgs806xJqop72o-104">
          <mxGeometry relative="1" as="geometry">
            <mxPoint x="570" y="1610" as="targetPoint" />
          </mxGeometry>
        </mxCell>
        <mxCell id="Ho8h_6Hgs806xJqop72o-96" value="否" style="edgeLabel;html=1;align=center;verticalAlign=middle;resizable=0;points=[];fontSize=13;fontColor=#000000;" vertex="1" connectable="0" parent="Ho8h_6Hgs806xJqop72o-73">
          <mxGeometry x="-0.1451" relative="1" as="geometry">
            <mxPoint x="1" as="offset" />
          </mxGeometry>
        </mxCell>
        <mxCell id="Ho8h_6Hgs806xJqop72o-87" value="" style="edgeStyle=orthogonalEdgeStyle;rounded=0;orthogonalLoop=1;jettySize=auto;html=1;labelBackgroundColor=none;fontSize=13;fontColor=#000000;startArrow=none;startFill=0;endArrow=classic;endFill=1;" edge="1" parent="1" source="Ho8h_6Hgs806xJqop72o-67" target="Ho8h_6Hgs806xJqop72o-86">
          <mxGeometry relative="1" as="geometry" />
        </mxCell>
        <mxCell id="Ho8h_6Hgs806xJqop72o-95" value="是" style="edgeLabel;html=1;align=center;verticalAlign=middle;resizable=0;points=[];fontSize=13;fontColor=#000000;" vertex="1" connectable="0" parent="Ho8h_6Hgs806xJqop72o-87">
          <mxGeometry x="-0.2" y="1" relative="1" as="geometry">
            <mxPoint as="offset" />
          </mxGeometry>
        </mxCell>
        <mxCell id="Ho8h_6Hgs806xJqop72o-67" value="TryLock&lt;br&gt;cas 操作设置 owner = 当前线程" style="rhombus;whiteSpace=wrap;html=1;fontSize=13;fillColor=#fff2cc;labelBackgroundColor=none;strokeColor=#d6b656;" vertex="1" parent="1">
          <mxGeometry x="157.5" y="1570" width="185" height="80" as="geometry" />
        </mxCell>
        <mxCell id="Ho8h_6Hgs806xJqop72o-79" style="edgeStyle=orthogonalEdgeStyle;rounded=0;orthogonalLoop=1;jettySize=auto;html=1;exitX=0.5;exitY=1;exitDx=0;exitDy=0;entryX=0.5;entryY=0;entryDx=0;entryDy=0;labelBackgroundColor=none;fontSize=13;fontColor=#000000;startArrow=none;startFill=0;endArrow=classic;endFill=1;" edge="1" parent="1" target="Ho8h_6Hgs806xJqop72o-78">
          <mxGeometry relative="1" as="geometry">
            <mxPoint x="662.5" y="1650" as="sourcePoint" />
          </mxGeometry>
        </mxCell>
        <mxCell id="Ho8h_6Hgs806xJqop72o-100" value="入队失败" style="edgeLabel;html=1;align=center;verticalAlign=middle;resizable=0;points=[];fontSize=13;fontColor=#000000;" vertex="1" connectable="0" parent="Ho8h_6Hgs806xJqop72o-79">
          <mxGeometry x="-0.1" y="-1" relative="1" as="geometry">
            <mxPoint as="offset" />
          </mxGeometry>
        </mxCell>
        <mxCell id="Ho8h_6Hgs806xJqop72o-76" value="调用 par&amp;nbsp;挂起" style="shape=document;whiteSpace=wrap;html=1;boundedLbl=1;labelBackgroundColor=none;fontSize=13;fillColor=#e1d5e7;strokeColor=#9673a6;" vertex="1" parent="1">
          <mxGeometry x="614" y="1930" width="97" height="60" as="geometry" />
        </mxCell>
        <mxCell id="Ho8h_6Hgs806xJqop72o-80" style="edgeStyle=orthogonalEdgeStyle;rounded=0;orthogonalLoop=1;jettySize=auto;html=1;exitX=0.5;exitY=1;exitDx=0;exitDy=0;labelBackgroundColor=none;fontSize=13;fontColor=#000000;startArrow=none;startFill=0;endArrow=classic;endFill=1;" edge="1" parent="1" source="Ho8h_6Hgs806xJqop72o-78" target="Ho8h_6Hgs806xJqop72o-76">
          <mxGeometry relative="1" as="geometry" />
        </mxCell>
        <mxCell id="Ho8h_6Hgs806xJqop72o-94" value="否" style="edgeLabel;html=1;align=center;verticalAlign=middle;resizable=0;points=[];fontSize=13;fontColor=#000000;" vertex="1" connectable="0" parent="Ho8h_6Hgs806xJqop72o-80">
          <mxGeometry x="-0.1333" y="1" relative="1" as="geometry">
            <mxPoint as="offset" />
          </mxGeometry>
        </mxCell>
        <mxCell id="Ho8h_6Hgs806xJqop72o-92" style="edgeStyle=orthogonalEdgeStyle;rounded=0;orthogonalLoop=1;jettySize=auto;html=1;exitX=0;exitY=0.5;exitDx=0;exitDy=0;labelBackgroundColor=none;fontSize=13;fontColor=#000000;startArrow=none;startFill=0;endArrow=classic;endFill=1;" edge="1" parent="1" source="Ho8h_6Hgs806xJqop72o-78" target="Ho8h_6Hgs806xJqop72o-86">
          <mxGeometry relative="1" as="geometry" />
        </mxCell>
        <mxCell id="Ho8h_6Hgs806xJqop72o-93" value="是" style="edgeLabel;html=1;align=center;verticalAlign=middle;resizable=0;points=[];fontSize=13;fontColor=#000000;" vertex="1" connectable="0" parent="Ho8h_6Hgs806xJqop72o-92">
          <mxGeometry x="-0.0308" relative="1" as="geometry">
            <mxPoint as="offset" />
          </mxGeometry>
        </mxCell>
        <mxCell id="Ho8h_6Hgs806xJqop72o-78" value="TryLock&lt;br&gt;cas 操作设置 owner = 当前线程" style="rhombus;whiteSpace=wrap;html=1;fontSize=13;fillColor=#fff2cc;labelBackgroundColor=none;strokeColor=#d6b656;" vertex="1" parent="1">
          <mxGeometry x="570" y="1730" width="185" height="80" as="geometry" />
        </mxCell>
        <mxCell id="Ho8h_6Hgs806xJqop72o-83" value="return" style="ellipse;whiteSpace=wrap;html=1;fontSize=13;labelBackgroundColor=none;fillColor=#f8cecc;strokeColor=#b85450;" vertex="1" parent="1">
          <mxGeometry x="455" y="1310" width="120" height="60" as="geometry" />
        </mxCell>
        <mxCell id="Ho8h_6Hgs806xJqop72o-86" value="return" style="ellipse;whiteSpace=wrap;html=1;fontSize=13;labelBackgroundColor=none;fillColor=#f8cecc;strokeColor=#b85450;" vertex="1" parent="1">
          <mxGeometry x="190" y="1740" width="120" height="60" as="geometry" />
        </mxCell>
        <mxCell id="Ho8h_6Hgs806xJqop72o-88" value="return" style="ellipse;whiteSpace=wrap;html=1;fontSize=13;fillColor=#f8cecc;labelBackgroundColor=none;strokeColor=#b85450;" vertex="1" parent="1">
          <mxGeometry x="420" y="900" width="120" height="60" as="geometry" />
        </mxCell>
        <mxCell id="Ho8h_6Hgs806xJqop72o-90" value="return" style="ellipse;whiteSpace=wrap;html=1;fontSize=13;fillColor=#f8cecc;labelBackgroundColor=none;strokeColor=#b85450;" vertex="1" parent="1">
          <mxGeometry x="650" y="900" width="120" height="60" as="geometry" />
        </mxCell>
        <mxCell id="Ho8h_6Hgs806xJqop72o-105" style="edgeStyle=orthogonalEdgeStyle;rounded=0;orthogonalLoop=1;jettySize=auto;html=1;exitX=1;exitY=0.5;exitDx=0;exitDy=0;entryX=1;entryY=0.5;entryDx=0;entryDy=0;labelBackgroundColor=none;fontSize=13;fontColor=#000000;startArrow=none;startFill=0;endArrow=classic;endFill=1;" edge="1" parent="1" source="Ho8h_6Hgs806xJqop72o-104" target="Ho8h_6Hgs806xJqop72o-76">
          <mxGeometry relative="1" as="geometry">
            <Array as="points">
              <mxPoint x="850" y="1610" />
              <mxPoint x="850" y="1960" />
            </Array>
          </mxGeometry>
        </mxCell>
        <mxCell id="Ho8h_6Hgs806xJqop72o-106" value="入队成功" style="edgeLabel;html=1;align=center;verticalAlign=middle;resizable=0;points=[];fontSize=13;fontColor=#000000;" vertex="1" connectable="0" parent="Ho8h_6Hgs806xJqop72o-105">
          <mxGeometry x="-0.6451" y="-1" relative="1" as="geometry">
            <mxPoint as="offset" />
          </mxGeometry>
        </mxCell>
        <mxCell id="Ho8h_6Hgs806xJqop72o-104" value="死循环&lt;br&gt;将当前线程封装为 ObjectWait 尝试入队&lt;br&gt;CAS 将 cxq 指向该节点" style="shape=hexagon;perimeter=hexagonPerimeter2;whiteSpace=wrap;html=1;fixedSize=1;labelBackgroundColor=none;fontSize=13;fillColor=#dae8fc;strokeColor=#6c8ebf;" vertex="1" parent="1">
          <mxGeometry x="520" y="1570" width="280" height="80" as="geometry" />
        </mxCell>
      </root>
    </mxGraphModel>
  </diagram>
</mxfile>
